<svg width="72" height="72" viewBox="0 0 72 72" fill="none" xmlns="http://www.w3.org/2000/svg">
<path d="M3.004 32.911C3.00506 34.0065 3.44073 35.0569 4.2154 35.8316C4.99008 36.6063 6.04045 37.0419 7.136 37.043H9.954L13.332 61.036C13.965 65.527 17.859 68.91 22.39 68.91H49.64C54.172 68.91 58.07 65.527 58.699 61.036L62.077 37.043H64.895C65.9905 37.0419 67.0409 36.6063 67.8156 35.8316C68.5903 35.0569 69.0259 34.0065 69.027 32.911V28.048C69.0259 26.9525 68.5903 25.9021 67.8156 25.1274C67.0409 24.3527 65.9905 23.9171 64.895 23.916H57.968C57.41 12.286 47.779 3 36.016 3C24.252 3 14.62 12.291 14.063 23.916H7.132C6.03645 23.9171 4.98608 24.3527 4.2114 25.1274C3.43673 25.9021 3.00106 26.9525 3 28.048V32.911H3.004ZM13.296 44.688L12.22 37.038H22.108L22.839 44.688H13.296ZM13.61 46.931H23.05L23.884 55.639H14.84L13.615 46.931H13.61ZM22.39 66.662C18.967 66.662 16.029 64.105 15.553 60.718L15.153 57.882H24.095L24.935 66.662H22.39ZM34.58 66.662H27.19L26.352 57.882H34.58V66.662ZM34.58 55.639H26.137L25.307 46.931H34.584V55.639H34.58ZM34.58 44.688H25.09L24.359 37.038H34.579V44.688H34.58ZM45.163 66.662H36.823V57.882H46.003L45.163 66.662ZM46.218 55.639H36.823V46.931H47.048L46.213 55.639H46.218ZM36.823 44.688V37.038H47.994L47.263 44.688H36.823ZM56.478 60.722C56.003 64.109 53.059 66.667 49.641 66.667H47.416L48.255 57.887H56.877L56.478 60.722ZM57.191 55.644H48.465L49.3 46.935H58.42L57.196 55.644H57.191ZM58.735 44.692H49.515L50.246 37.043H59.816L58.739 44.693L58.735 44.692ZM36.015 5.248C46.541 5.248 55.168 13.53 55.72 23.92H51.189C50.539 16.118 43.983 9.963 36.011 9.963C28.039 9.963 21.488 16.113 20.833 23.92H16.303C16.854 13.53 25.481 5.248 36.007 5.248H36.015ZM48.942 23.92H23.086C23.732 17.356 29.281 12.206 36.011 12.206C42.741 12.206 48.295 17.352 48.936 23.92H48.942ZM5.248 28.052C5.248 27.012 6.096 26.163 7.136 26.163H64.9C65.941 26.163 66.789 27.011 66.789 28.053V32.916C66.789 33.956 65.941 34.804 64.9 34.804H7.132C6.63125 34.8032 6.15124 34.6039 5.79715 34.2498C5.44307 33.8958 5.24379 33.4158 5.243 32.915V28.052H5.248Z" fill="black"/>
</svg>
